<?xml version="1.0" encoding="UTF-8" standalone="no"?><!DOCTYPE svg PUBLIC "-//W3C//DTD SVG 1.1//EN" "http://www.w3.org/Graphics/SVG/1.1/DTD/svg11.dtd"><svg width="100%" height="100%" viewBox="0 0 60 8" version="1.1" xmlns="http://www.w3.org/2000/svg" xmlns:xlink="http://www.w3.org/1999/xlink" xml:space="preserve" xmlns:serif="http://www.serif.com/" style="fill-rule:evenodd;clip-rule:evenodd;stroke-linejoin:round;stroke-miterlimit:2;"><g id="レイヤー1"><g transform="matrix(2.26516,0,0,1.10227,0.384748,-1.91928)"><text x="-0px" y="8px" style="font-family:'Gadugi-Bold', 'Gadugi', sans-serif;font-weight:700;font-size:7.517px;fill:#fff;">O P E N</text><path d="M2.826,8.801c0.839,-0 1.517,-0.289 2.039,-0.838c0.623,-0.657 0.909,-1.559 0.909,-2.631c-0,-1.051 -0.278,-1.934 -0.883,-2.576c-0.504,-0.535 -1.163,-0.817 -1.98,-0.817c-0.862,0 -1.553,0.294 -2.075,0.851c-0.623,0.664 -0.909,1.572 -0.909,2.648c-0,1.03 0.281,1.91 0.902,2.551c0.515,0.532 1.18,0.812 1.997,0.812Zm0,-0.709c-0.753,-0 -1.368,-0.246 -1.842,-0.736c-0.475,-0.491 -0.712,-1.13 -0.712,-1.918c-0,-0.832 0.241,-1.505 0.723,-2.019c0.482,-0.514 1.12,-0.771 1.916,-0.771c0.751,0 1.358,0.246 1.822,0.738c0.464,0.492 0.696,1.14 0.696,1.946c-0,0.827 -0.241,1.493 -0.722,2c-0.48,0.506 -1.107,0.76 -1.881,0.76Zm0.052,-4.423c-0.416,-0 -0.747,0.156 -0.991,0.468c-0.245,0.312 -0.367,0.725 -0.367,1.239c-0,0.521 0.122,0.933 0.367,1.237c0.244,0.303 0.565,0.455 0.961,0.455c0.409,-0 0.733,-0.148 0.973,-0.443c0.24,-0.294 0.36,-0.704 0.36,-1.227c-0,-0.546 -0.117,-0.971 -0.349,-1.274c-0.232,-0.303 -0.551,-0.455 -0.954,-0.455Zm-0,0.709c0.324,-0 0.582,0.101 0.769,0.344c0.124,0.162 0.189,0.385 0.189,0.676c-0,0.268 -0.069,0.468 -0.192,0.619c-0.196,0.241 -0.462,0.342 -0.796,0.342c-0.322,-0 -0.584,-0.107 -0.783,-0.353c-0.127,-0.158 -0.2,-0.36 -0.2,-0.63c-0,-0.27 0.075,-0.473 0.204,-0.637c0.199,-0.254 0.47,-0.361 0.809,-0.361Z"/><path d="M9.907,6.896l0.22,-0c0.692,-0 1.244,-0.19 1.658,-0.545c0.551,-0.473 0.783,-1.171 0.783,-1.937c-0,-0.693 -0.154,-1.261 -0.483,-1.677c-0.353,-0.447 -0.968,-0.709 -1.852,-0.709l-1.857,-0c-0.19,-0 -0.345,0.317 -0.345,0.709l0,5.263c0,0.392 0.155,0.709 0.345,0.709l1.186,-0c0.19,-0 0.345,-0.317 0.345,-0.709l-0,-1.104Zm-0.345,-0.709l-0,1.813l-1.186,0l0,-5.263l1.857,-0c1.327,-0 1.99,0.559 1.99,1.677c-0,0.528 -0.191,0.956 -0.571,1.283c-0.381,0.326 -0.889,0.49 -1.525,0.49l-0.565,-0Zm-0,-2.54l-0,1.641l0.466,-0c0.631,-0 0.947,-0.277 0.947,-0.83c-0,-0.541 -0.316,-0.811 -0.947,-0.811l-0.466,-0Zm0.989,0.819l-0.011,0.007c-0.128,0.074 -0.299,0.106 -0.512,0.106c-0,-0 -0.121,-0 -0.121,-0l-0,-0.223l0.121,-0c0.214,-0 0.385,0.03 0.513,0.104l0.01,0.006Z"/><path d="M18.221,6.329c0.061,-0.127 0.098,-0.302 0.098,-0.495l0,-0.961c0,-0.197 -0.038,-0.374 -0.101,-0.503c0.134,-0.097 0.23,-0.359 0.23,-0.668l-0,-0.965c-0,-0.392 -0.155,-0.709 -0.345,-0.709l-3.036,-0c-0.19,-0 -0.345,0.317 -0.345,0.709l0,5.263c0,0.392 0.155,0.709 0.345,0.709l3.157,-0c0.19,-0 0.345,-0.317 0.345,-0.709l-0,-0.962c-0,-0.391 -0.155,-0.709 -0.345,-0.709l-0.003,0Zm0.003,1.671l-3.157,0l0,-5.263l3.036,-0l-0,0.965l-1.85,-0l-0,1.171l1.721,-0l0,0.961l-1.721,0l-0,1.204l1.971,0l-0,0.962Z"/><path d="M22.606,5.721l1.869,2.848c0.059,0.091 0.131,0.14 0.205,0.14l1.197,-0c0.19,-0 0.345,-0.317 0.345,-0.709l-0,-5.263c-0,-0.392 -0.155,-0.709 -0.345,-0.709l-1.12,-0c-0.19,-0 -0.345,0.317 -0.345,0.709l0,2.173l-1.786,-2.742c-0.06,-0.091 -0.132,-0.14 -0.207,-0.14l-1.277,-0c-0.191,-0 -0.345,0.317 -0.345,0.709l-0,5.263c-0,0.392 0.154,0.709 0.345,0.709l1.119,-0c0.191,-0 0.345,-0.317 0.345,-0.709l0,-2.279Zm3.271,2.279l-1.197,0l-2.169,-3.307c-0.127,-0.193 -0.215,-0.339 -0.264,-0.437l-0.015,0c0.02,0.186 0.029,0.47 0.029,0.852l0,2.892l-1.119,0l-0,-5.263l1.277,-0l2.089,3.204c0.095,0.144 0.183,0.287 0.264,0.429l0.015,0c-0.02,-0.122 -0.03,-0.363 -0.03,-0.723l0,-2.91l1.12,-0l-0,5.263Z"/></g></g></svg>